<svg xmlns="http://www.w3.org/2000/svg" viewBox="0 0 320 200" role="img" aria-label="Volleyball illustration">
  <defs>
    <linearGradient id="gradVoli" x1="0" x2="1" y1="0" y2="1">
      <stop offset="0%" stop-color="#2563eb" />
      <stop offset="100%" stop-color="#60a5fa" />
    </linearGradient>
  </defs>
  <rect width="320" height="200" rx="24" fill="url(#gradVoli)" />
  <circle cx="210" cy="92" r="52" fill="#e0f2fe" opacity="0.9" />
  <path d="M174 88c18-4 36-1 52 10 10 7 19 16 27 26M210 40c-8 28-8 56 0 84M168 115c28 6 52 4 80-6M180 60c26 12 48 30 70 56" stroke="#2563eb" stroke-width="6" stroke-linecap="round" fill="none" />
  <rect x="36" y="122" width="120" height="12" rx="6" fill="#fff" opacity="0.85" />
  <rect x="36" y="140" width="96" height="12" rx="6" fill="#fff" opacity="0.6" />
  <text x="36" y="96" font-family="'Inter', system-ui" font-size="22" font-weight="700" fill="#fff">Voli</text>
</svg>
